<?xml version="1.0" encoding="UTF-8"?>
<svg xmlns="http://www.w3.org/2000/svg" xmlns:xlink="http://www.w3.org/1999/xlink" width="20px" height="20px" viewBox="0 0 24 24" version="1.1">
<g id="surface1">
<path style=" stroke:none;fill-rule:nonzero;fill:rgb(0%,0%,0%);fill-opacity:1;" d="M 23.390625 10.386719 L 13.601562 0.601562 C 13.1875 0.183594 12.632812 -0.046875 12.042969 -0.046875 C 11.449219 -0.046875 10.898438 0.183594 10.480469 0.601562 L 0.699219 10.382812 C 0.695312 10.382812 0.691406 10.386719 0.6875 10.390625 C -0.167969 11.253906 -0.167969 12.652344 0.691406 13.511719 C 1.085938 13.902344 1.601562 14.128906 2.15625 14.152344 C 2.179688 14.15625 2.203125 14.15625 2.226562 14.15625 L 2.617188 14.15625 L 2.617188 21.359375 C 2.617188 22.785156 3.777344 23.945312 5.199219 23.945312 L 9.03125 23.945312 C 9.417969 23.945312 9.734375 23.628906 9.734375 23.242188 L 9.734375 17.59375 C 9.734375 16.945312 10.261719 16.414062 10.910156 16.414062 L 13.171875 16.414062 C 13.820312 16.414062 14.347656 16.945312 14.347656 17.59375 L 14.347656 23.242188 C 14.347656 23.628906 14.664062 23.945312 15.050781 23.945312 L 18.882812 23.945312 C 20.304688 23.945312 21.464844 22.785156 21.464844 21.359375 L 21.464844 14.15625 L 21.828125 14.15625 C 22.417969 14.15625 22.972656 13.925781 23.390625 13.511719 C 24.25 12.648438 24.25 11.25 23.390625 10.386719 Z M 22.394531 12.515625 C 22.242188 12.667969 22.042969 12.75 21.828125 12.75 L 20.761719 12.75 C 20.375 12.75 20.058594 13.066406 20.058594 13.453125 L 20.058594 21.359375 C 20.058594 22.007812 19.53125 22.539062 18.882812 22.539062 L 15.753906 22.539062 L 15.753906 17.59375 C 15.753906 16.167969 14.59375 15.007812 13.171875 15.007812 L 10.910156 15.007812 C 9.488281 15.007812 8.328125 16.167969 8.328125 17.59375 L 8.328125 22.539062 L 5.199219 22.539062 C 4.550781 22.539062 4.023438 22.007812 4.023438 21.359375 L 4.023438 13.453125 C 4.023438 13.066406 3.707031 12.75 3.320312 12.75 L 2.273438 12.75 C 2.261719 12.75 2.25 12.75 2.238281 12.75 C 2.03125 12.746094 1.832031 12.664062 1.6875 12.515625 C 1.375 12.203125 1.375 11.695312 1.6875 11.378906 L 11.472656 1.59375 C 11.625 1.441406 11.828125 1.359375 12.042969 1.359375 C 12.253906 1.359375 12.457031 1.441406 12.609375 1.59375 L 22.390625 11.378906 C 22.394531 11.378906 22.394531 11.378906 22.398438 11.382812 C 22.707031 11.695312 22.707031 12.203125 22.394531 12.515625 Z M 22.394531 12.515625 "/>
</g>
</svg>
