<?xml version="1.0" encoding="UTF-8"?>
<svg xmlns="http://www.w3.org/2000/svg" xmlns:xlink="http://www.w3.org/1999/xlink" width="20px" height="20px" viewBox="0 0 24 24" version="1.1">
<g id="surface1">
<path style=" stroke:none;fill-rule:nonzero;fill:rgb(0%,0%,0%);fill-opacity:1;" d="M 13.136719 1.105469 C 7.347656 1.089844 2.609375 5.585938 2.234375 11.277344 L 0.71875 11.277344 C 0.167969 11.277344 -0.179688 11.875 0.0976562 12.351562 L 1.785156 15.277344 L 3.472656 18.199219 C 3.75 18.679688 4.441406 18.679688 4.71875 18.199219 L 6.40625 15.277344 L 8.09375 12.351562 C 8.371094 11.875 8.023438 11.277344 7.472656 11.277344 L 5.675781 11.277344 C 6.042969 7.457031 9.300781 4.472656 13.230469 4.535156 C 17.203125 4.601562 20.453125 7.808594 20.566406 11.78125 C 20.6875 16 17.292969 19.464844 13.105469 19.464844 C 12.03125 19.464844 11.007812 19.238281 10.085938 18.828125 C 9.285156 18.472656 8.34375 18.777344 7.90625 19.539062 C 7.398438 20.417969 7.757812 21.546875 8.6875 21.960938 C 10.035156 22.5625 11.53125 22.894531 13.105469 22.894531 C 19.113281 22.894531 23.988281 18.03125 24 12.023438 C 24.011719 5.988281 19.171875 1.121094 13.136719 1.105469 Z M 13.136719 1.105469 "/>
<path style=" stroke:none;fill-rule:nonzero;fill:rgb(0%,0%,0%);fill-opacity:1;" d="M 15.9375 11.53125 L 15.113281 11.53125 C 14.902344 10.933594 14.425781 10.457031 13.828125 10.246094 L 13.828125 9.390625 C 13.828125 9 13.511719 8.6875 13.125 8.6875 C 12.738281 8.6875 12.421875 9 12.421875 9.390625 L 12.421875 10.246094 C 11.601562 10.535156 11.015625 11.316406 11.015625 12.234375 C 11.015625 13.394531 11.960938 14.34375 13.125 14.34375 C 13.128906 14.34375 13.132812 14.34375 13.136719 14.34375 C 14.050781 14.335938 14.824219 13.75 15.113281 12.9375 L 15.9375 12.9375 C 16.324219 12.9375 16.640625 12.621094 16.640625 12.234375 C 16.640625 11.84375 16.324219 11.53125 15.9375 11.53125 Z M 13.136719 12.9375 C 13.132812 12.9375 13.128906 12.9375 13.125 12.9375 C 12.738281 12.9375 12.421875 12.621094 12.421875 12.234375 C 12.421875 11.84375 12.738281 11.53125 13.125 11.53125 C 13.128906 11.53125 13.132812 11.53125 13.136719 11.53125 C 13.519531 11.539062 13.828125 11.851562 13.828125 12.234375 C 13.828125 12.617188 13.519531 12.929688 13.136719 12.9375 Z M 13.136719 12.9375 "/>
</g>
</svg>
