<?xml version="1.0" encoding="UTF-8"?>
<svg xmlns="http://www.w3.org/2000/svg" xmlns:xlink="http://www.w3.org/1999/xlink" width="20px" height="20px" viewBox="0 0 24 24" version="1.1">
<g id="surface1">
<path style=" stroke:none;fill-rule:nonzero;fill:rgb(0%,0%,0%);fill-opacity:1;" d="M 20.867188 4.4375 C 18.847656 2.417969 16.152344 1.304688 13.28125 1.300781 C 13.273438 1.300781 13.265625 1.300781 13.261719 1.300781 C 10.519531 1.300781 7.910156 2.328125 5.914062 4.195312 C 4.082031 5.90625 2.921875 8.171875 2.605469 10.632812 L 0.707031 10.632812 C 0.453125 10.632812 0.21875 10.765625 0.09375 10.984375 C -0.03125 11.203125 -0.03125 11.46875 0.09375 11.6875 L 4.351562 19.03125 C 4.476562 19.25 4.710938 19.382812 4.960938 19.382812 C 5.214844 19.382812 5.445312 19.25 5.574219 19.03125 L 9.828125 11.6875 C 9.953125 11.46875 9.953125 11.203125 9.828125 10.984375 C 9.703125 10.765625 9.46875 10.632812 9.21875 10.632812 L 7.242188 10.632812 C 7.523438 9.402344 8.179688 8.289062 9.136719 7.429688 C 10.300781 6.386719 11.800781 5.828125 13.363281 5.851562 C 14.949219 5.878906 16.453125 6.511719 17.589844 7.628906 C 18.730469 8.75 19.382812 10.238281 19.429688 11.820312 C 19.476562 13.496094 18.855469 15.078125 17.683594 16.28125 C 16.507812 17.484375 14.9375 18.148438 13.257812 18.148438 C 12.390625 18.148438 11.550781 17.972656 10.765625 17.621094 C 9.695312 17.148438 8.445312 17.554688 7.859375 18.566406 C 7.535156 19.125 7.464844 19.796875 7.664062 20.410156 C 7.863281 21.023438 8.316406 21.523438 8.90625 21.785156 C 10.28125 22.394531 11.746094 22.699219 13.257812 22.699219 C 16.128906 22.699219 18.824219 21.585938 20.855469 19.566406 C 22.882812 17.546875 24 14.859375 24 12 C 24 9.140625 22.886719 6.453125 20.867188 4.4375 Z M 13.257812 21.292969 C 11.945312 21.292969 10.671875 21.027344 9.480469 20.5 C 9.253906 20.398438 9.085938 20.214844 9.007812 19.976562 C 8.929688 19.738281 8.953125 19.484375 9.082031 19.269531 C 9.242188 18.992188 9.535156 18.832031 9.835938 18.832031 C 9.957031 18.832031 10.078125 18.855469 10.191406 18.90625 C 11.160156 19.335938 12.191406 19.554688 13.261719 19.554688 C 15.324219 19.554688 17.253906 18.738281 18.695312 17.261719 C 20.136719 15.785156 20.898438 13.839844 20.839844 11.78125 C 20.78125 9.835938 19.980469 8.003906 18.582031 6.628906 C 17.183594 5.253906 15.339844 4.476562 13.386719 4.445312 C 11.464844 4.414062 9.621094 5.105469 8.195312 6.382812 C 6.777344 7.652344 5.894531 9.386719 5.714844 11.269531 C 5.695312 11.464844 5.757812 11.660156 5.894531 11.808594 C 6.027344 11.953125 6.214844 12.039062 6.414062 12.039062 L 7.996094 12.039062 L 4.960938 17.273438 L 1.929688 12.039062 L 3.246094 12.039062 C 3.621094 12.039062 3.929688 11.75 3.953125 11.382812 C 4.105469 9.027344 5.144531 6.839844 6.878906 5.222656 C 8.613281 3.597656 10.878906 2.707031 13.261719 2.707031 L 13.277344 2.707031 C 15.773438 2.710938 18.113281 3.679688 19.867188 5.429688 C 21.621094 7.179688 22.589844 9.515625 22.589844 12 C 22.589844 17.125 18.402344 21.292969 13.261719 21.292969 Z M 13.257812 21.292969 "/>
<path style=" stroke:none;fill-rule:nonzero;fill:rgb(0%,0%,0%);fill-opacity:1;" d="M 13.316406 8.453125 C 12.925781 8.453125 12.613281 8.765625 12.613281 9.15625 L 12.613281 10.011719 C 11.789062 10.300781 11.199219 11.082031 11.199219 12 C 11.199219 13.164062 12.148438 14.109375 13.316406 14.109375 C 14.238281 14.109375 15.023438 13.523438 15.3125 12.703125 L 16.140625 12.703125 C 16.53125 12.703125 16.847656 12.386719 16.847656 12 C 16.847656 11.613281 16.53125 11.296875 16.140625 11.296875 L 15.3125 11.296875 C 15.101562 10.699219 14.625 10.222656 14.023438 10.011719 L 14.023438 9.15625 C 14.023438 8.765625 13.707031 8.453125 13.316406 8.453125 Z M 13.316406 12.703125 C 12.929688 12.703125 12.613281 12.386719 12.613281 12 C 12.613281 11.613281 12.929688 11.296875 13.316406 11.296875 C 13.707031 11.296875 14.023438 11.613281 14.023438 12 C 14.023438 12.386719 13.707031 12.703125 13.316406 12.703125 Z M 13.316406 12.703125 "/>
</g>
</svg>
