<svg width="24" height="24" viewBox="0 0 24 24" fill="none" xmlns="http://www.w3.org/2000/svg">
<g id="center_focus_weak_24px">
<path id="icon/image/center_focus_weak_24px" fill-rule="evenodd" clip-rule="evenodd" d="M9 5H5V9H3V5C3 3.9 3.9 3 5 3H9V5ZM3 15H5V19H9V21H5C3.9 21 3 20.1 3 19V15ZM12 8C9.79 8 8 9.79 8 12C8 14.21 9.79 16 12 16C14.21 16 16 14.21 16 12C16 9.79 14.21 8 12 8ZM10 12C10 13.1 10.9 14 12 14C13.1 14 14 13.1 14 12C14 10.9 13.1 10 12 10C10.9 10 10 10.9 10 12ZM19 3H15V5H19V9H21V5C21 3.9 20.1 3 19 3ZM15 19H19V15H21V19C21 20.1 20.1 21 19 21H15V19Z" fill="black" fill-opacity="0.54"/>
</g>
</svg>
