<?xml version="1.0" encoding="UTF-8"?>
<svg xmlns="http://www.w3.org/2000/svg" xmlns:xlink="http://www.w3.org/1999/xlink" width="24pt" height="24pt" viewBox="0 0 24 24" version="1.1">
<g id="surface1">
<path style=" stroke:none;fill-rule:nonzero;fill:rgb(0%,0%,0%);fill-opacity:1;" d="M 20 3 C 20 1.347656 18.652344 0 17 0 L 7 0 C 5.347656 0 4 1.347656 4 3 L 4 21 C 4 22.652344 5.347656 24 7 24 L 17 24 C 18.652344 24 20 22.652344 20 21 Z M 18 21 C 18 21.550781 17.550781 22 17 22 L 7 22 C 6.449219 22 6 21.550781 6 21 L 6 3 C 6 2.449219 6.449219 2 7 2 L 7.5 2 C 8.050781 2 8.5 2.449219 8.5 3 C 8.5 3.550781 8.949219 4 9.5 4 L 14.5 4 C 15.050781 4 15.5 3.550781 15.5 3 C 15.5 2.449219 15.949219 2 16.5 2 L 17 2 C 17.550781 2 18 2.449219 18 3 Z M 18 21 "/>
<path style=" stroke:none;fill-rule:nonzero;fill:rgb(0%,0%,0%);fill-opacity:1;" d="M 7.75 12 C 7.335938 12 7 11.664062 7 11.25 L 7 9.75 C 7 8.785156 7.785156 8 8.75 8 L 10.25 8 C 10.664062 8 11 8.335938 11 8.75 C 11 9.164062 10.664062 9.5 10.25 9.5 L 8.75 9.5 C 8.613281 9.5 8.5 9.613281 8.5 9.75 L 8.5 11.25 C 8.5 11.664062 8.164062 12 7.75 12 Z M 7.75 12 "/>
<path style=" stroke:none;fill-rule:nonzero;fill:rgb(0%,0%,0%);fill-opacity:1;" d="M 16.25 12 C 15.835938 12 15.5 11.664062 15.5 11.25 L 15.5 9.75 C 15.5 9.613281 15.386719 9.5 15.25 9.5 L 13.75 9.5 C 13.335938 9.5 13 9.164062 13 8.75 C 13 8.335938 13.335938 8 13.75 8 L 15.25 8 C 16.214844 8 17 8.785156 17 9.75 L 17 11.25 C 17 11.664062 16.664062 12 16.25 12 Z M 16.25 12 "/>
<path style=" stroke:none;fill-rule:nonzero;fill:rgb(0%,0%,0%);fill-opacity:1;" d="M 10.25 18 L 8.75 18 C 7.785156 18 7 17.214844 7 16.25 L 7 14.75 C 7 14.335938 7.335938 14 7.75 14 C 8.164062 14 8.5 14.335938 8.5 14.75 L 8.5 16.25 C 8.5 16.386719 8.613281 16.5 8.75 16.5 L 10.25 16.5 C 10.664062 16.5 11 16.835938 11 17.25 C 11 17.664062 10.664062 18 10.25 18 Z M 10.25 18 "/>
<path style=" stroke:none;fill-rule:nonzero;fill:rgb(0%,0%,0%);fill-opacity:1;" d="M 15.25 18 L 13.75 18 C 13.335938 18 13 17.664062 13 17.25 C 13 16.835938 13.335938 16.5 13.75 16.5 L 15.25 16.5 C 15.386719 16.5 15.5 16.386719 15.5 16.25 L 15.5 14.75 C 15.5 14.335938 15.835938 14 16.25 14 C 16.664062 14 17 14.335938 17 14.75 L 17 16.25 C 17 17.214844 16.214844 18 15.25 18 Z M 15.25 18 "/>
</g>
</svg>
