<?xml version="1.0" encoding="UTF-8"?>
<svg xmlns="http://www.w3.org/2000/svg" xmlns:xlink="http://www.w3.org/1999/xlink" width="20px" height="20px" viewBox="0 0 24 24" version="1.1">
<g id="surface1">
<path style=" stroke:none;fill-rule:nonzero;fill:rgb(0%,0%,0%);fill-opacity:1;" d="M 12 0 C 8.511719 0 5.671875 2.839844 5.671875 6.328125 C 5.671875 9.816406 8.511719 12.65625 12 12.65625 C 15.488281 12.65625 18.328125 9.816406 18.328125 6.328125 C 18.328125 2.839844 15.488281 0 12 0 Z M 12 11.25 C 9.285156 11.25 7.078125 9.042969 7.078125 6.328125 C 7.078125 3.613281 9.285156 1.40625 12 1.40625 C 14.714844 1.40625 16.921875 3.613281 16.921875 6.328125 C 16.921875 9.042969 14.714844 11.25 12 11.25 Z M 12 11.25 "/>
<path style=" stroke:none;fill-rule:nonzero;fill:rgb(0%,0%,0%);fill-opacity:1;" d="M 19.875 16.789062 C 18.140625 15.03125 15.84375 14.0625 13.40625 14.0625 L 10.59375 14.0625 C 8.15625 14.0625 5.859375 15.03125 4.125 16.789062 C 2.402344 18.539062 1.453125 20.851562 1.453125 23.296875 C 1.453125 23.683594 1.769531 24 2.15625 24 L 21.84375 24 C 22.230469 24 22.546875 23.683594 22.546875 23.296875 C 22.546875 20.851562 21.597656 18.539062 19.875 16.789062 Z M 2.890625 22.59375 C 3.242188 18.605469 6.5625 15.46875 10.59375 15.46875 L 13.40625 15.46875 C 17.4375 15.46875 20.757812 18.605469 21.109375 22.59375 Z M 2.890625 22.59375 "/>
</g>
</svg>
