<?xml version="1.0" encoding="UTF-8"?>
<svg xmlns="http://www.w3.org/2000/svg" xmlns:xlink="http://www.w3.org/1999/xlink" width="20px" height="20px" viewBox="0 0 24 24" version="1.1">
<g id="surface1">
<path style=" stroke:none;fill-rule:nonzero;fill:rgb(0%,0%,0%);fill-opacity:1;" d="M 12 0 C 8.511719 0 5.671875 2.839844 5.671875 6.328125 C 5.671875 9.816406 8.511719 12.65625 12 12.65625 C 15.488281 12.65625 18.328125 9.816406 18.328125 6.328125 C 18.328125 2.839844 15.488281 0 12 0 Z M 12 0 "/>
<path style=" stroke:none;fill-rule:nonzero;fill:rgb(0%,0%,0%);fill-opacity:1;" d="M 19.875 16.789062 C 18.140625 15.03125 15.84375 14.0625 13.40625 14.0625 L 10.59375 14.0625 C 8.15625 14.0625 5.859375 15.03125 4.125 16.789062 C 2.402344 18.539062 1.453125 20.851562 1.453125 23.296875 C 1.453125 23.683594 1.769531 24 2.15625 24 L 21.84375 24 C 22.230469 24 22.546875 23.683594 22.546875 23.296875 C 22.546875 20.851562 21.597656 18.539062 19.875 16.789062 Z M 19.875 16.789062 "/>
</g>
</svg>
